<?xml version="1.0" standalone="no"?>
<!DOCTYPE svg PUBLIC "-//W3C//DTD SVG 20010904//EN"
 "http://www.w3.org/TR/2001/REC-SVG-20010904/DTD/svg10.dtd">
<svg version="1.0" xmlns="http://www.w3.org/2000/svg"
 width="640.000000pt" height="360.000000pt" viewBox="0 0 640.000000 360.000000"
 preserveAspectRatio="xMidYMid meet">

<g transform="translate(0.000000,360.000000) scale(0.100000,-0.100000)"
fill="#000000" stroke="none">
<path d="M0 1800 l0 -1400 3200 0 3200 0 0 1400 0 1400 -74 0 c-50 0 -76 -4
-79 -12 -4 -10 -6 -10 -6 0 -1 6 -5 12 -11 12 -5 0 -7 -13 -4 -28 7 -33 -8
-49 -54 -58 l-32 -6 0 46 0 46 -140 0 -140 0 -102 -46 c-250 -112 -570 -238
-590 -232 -6 2 20 17 59 33 l71 30 7 66 7 67 -40 41 -40 41 -306 0 c-185 0
-306 -4 -306 -9 0 -6 9 -72 20 -147 18 -124 27 -167 61 -297 l10 -38 112 2
112 1 -3 -183 -2 -184 19 52 c17 46 71 310 71 347 0 8 5 27 12 43 6 15 10 34
9 41 -3 18 13 15 33 -7 17 -19 7 -39 -14 -26 -15 9 -12 -3 7 -36 20 -34 33
-37 33 -9 0 11 5 20 10 20 6 0 10 6 10 14 0 26 17 26 44 1 22 -20 25 -30 21
-67 -9 -79 -13 -132 -15 -198 -1 -36 -4 -59 -7 -52 -6 16 -28 15 -43 -3 -11
-13 -8 -15 20 -15 l32 0 -7 -52 c-7 -49 -6 -51 9 -38 10 7 24 26 32 41 10 20
25 30 49 35 19 3 32 10 29 15 -3 5 6 9 20 9 13 0 27 -6 29 -12 4 -10 6 -10 6
0 1 6 7 12 15 12 7 0 19 7 26 15 20 24 41 19 35 -7 -5 -21 -2 -23 39 -24 40
-1 46 2 57 28 23 55 63 56 78 2 6 -23 14 -30 40 -32 24 -3 31 -7 27 -19 -3 -8
-6 -21 -6 -29 0 -12 -35 -14 -209 -14 l-210 0 -35 -44 c-32 -38 -36 -50 -36
-99 0 -35 -5 -57 -12 -60 -9 -4 -9 -8 -3 -14 9 -7 12 -62 7 -130 -1 -13 -9
-23 -17 -23 -21 0 -65 -22 -65 -32 0 -5 5 -6 10 -3 5 3 10 1 10 -4 0 -6 -7
-11 -15 -11 -8 0 -15 -7 -15 -15 0 -11 11 -15 38 -16 30 0 33 -2 17 -9 -24
-10 -99 -13 -108 -3 -4 3 1 12 10 18 15 11 15 13 -5 19 -12 4 -22 12 -22 18 0
5 7 8 15 5 8 -4 17 -2 20 3 3 5 -5 10 -17 12 -21 3 -24 10 -30 96 -7 90 -32
211 -49 242 -5 9 -9 -51 -9 -142 0 -100 -4 -159 -11 -163 -6 -4 -8 -13 -5 -21
3 -8 1 -14 -4 -14 -6 0 -10 -17 -10 -39 0 -30 4 -40 20 -44 27 -7 25 -27 -2
-28 -18 -1 -19 -2 -5 -6 9 -2 15 -8 12 -13 -3 -5 -12 -7 -20 -3 -10 3 -15 -2
-15 -16 0 -18 4 -20 27 -15 38 9 43 13 38 27 -12 31 101 61 143 38 9 -5 35
-11 56 -12 38 -4 40 -2 46 27 4 17 3 109 -2 204 l-9 174 32 30 31 31 -6 -239
c-3 -131 -10 -244 -15 -250 -6 -7 -7 -22 -4 -35 5 -20 3 -22 -16 -16 -24 7
-131 -14 -131 -27 0 -4 -5 -8 -11 -8 -5 0 -8 4 -5 8 3 5 -8 6 -25 4 -16 -2
-29 -10 -29 -18 0 -10 -12 -14 -39 -14 -22 0 -46 -3 -55 -6 -11 -4 -16 -1 -16
10 0 18 -26 22 -32 5 -3 -9 -10 -9 -23 -1 -11 5 -60 13 -110 17 -49 4 -97 13
-105 20 -8 7 -28 15 -45 18 -20 2 -12 5 22 6 28 0 75 -4 103 -11 40 -9 56 -9
71 0 10 7 32 12 48 12 43 0 44 23 2 35 -46 13 -62 44 -49 93 5 20 12 58 15 83
5 42 3 47 -18 52 -43 12 -119 7 -149 -8 -43 -22 -40 -57 10 -116 22 -26 40
-58 40 -71 0 -21 -5 -23 -50 -26 l-50 -3 0 45 c0 36 -5 48 -25 64 -14 11 -25
25 -25 31 0 15 -61 2 -85 -19 -11 -9 -28 -20 -37 -23 -20 -7 -25 -27 -7 -27 6
0 3 -8 -7 -17 -15 -15 -15 -18 -1 -22 16 -6 67 -75 67 -91 0 -6 -37 -10 -84
-10 -79 0 -85 1 -88 21 -3 22 43 80 72 92 10 3 6 6 -9 6 -16 1 -21 5 -17 16 3
9 -3 19 -14 25 -16 9 -20 7 -20 -7 0 -9 -9 -26 -19 -37 -11 -12 -23 -41 -28
-66 -8 -43 -10 -45 -48 -51 -22 -3 -30 -7 -17 -8 13 0 21 -5 18 -9 -6 -10
-113 -7 -138 3 -23 9 -58 -12 -58 -35 0 -12 -7 -20 -16 -20 -10 0 -14 6 -10
15 3 9 0 15 -8 15 -7 0 -28 3 -45 6 -24 5 -31 3 -31 -10 0 -21 -11 -20 -36 2
-14 13 -35 17 -84 16 -36 -1 -67 -3 -70 -3 -23 -7 -110 -6 -110 0 0 5 -5 9
-11 9 -6 0 -9 -6 -6 -13 4 -10 -2 -13 -20 -9 -15 3 -29 -1 -34 -9 -6 -10 -9
-10 -9 -1 0 16 -27 16 -33 0 -4 -8 -6 -7 -6 4 -1 27 -28 28 -136 3 -28 -6 -31
-4 -43 28 -7 19 -22 39 -35 45 -12 6 -16 11 -9 11 7 1 10 6 7 11 -3 6 -2 10 4
10 5 0 12 -6 14 -12 3 -8 6 -6 6 5 1 14 -7 17 -42 17 -24 0 -47 3 -50 7 -4 3
3 21 14 39 11 19 18 38 14 44 -3 5 -1 19 5 30 9 17 8 27 -5 46 -10 15 -15 42
-14 67 2 24 -1 50 -6 57 -14 22 -13 49 0 43 16 -6 26 34 11 46 -12 10 -14 60
-3 78 10 17 -19 35 -49 31 -52 -6 -59 -101 -9 -114 30 -7 30 -12 4 -44 -14
-16 -19 -19 -15 -7 8 27 -3 20 -14 -8 -10 -27 -53 -49 -82 -42 -15 4 -18 -1
-18 -29 0 -19 -5 -34 -11 -34 -8 0 -8 -5 1 -15 16 -20 30 -19 30 1 0 10 6 14
15 11 8 -4 17 -2 20 3 7 11 55 14 55 4 0 -3 -9 -13 -20 -22 -14 -12 -21 -35
-26 -77 -3 -33 -12 -67 -20 -76 -8 -9 -12 -24 -8 -34 8 -20 -10 -35 -43 -35
-12 0 -30 -12 -41 -27 -18 -25 -22 -26 -103 -24 -46 1 -81 -1 -77 -5 4 -4 35
-6 68 -6 33 0 60 -3 60 -8 0 -8 -28 -7 -180 3 -19 1 -36 6 -37 10 -7 18 -1 25
22 31 25 6 37 46 14 46 -5 0 -7 -4 -4 -10 3 -5 1 -10 -4 -10 -6 0 -11 4 -11 9
0 12 -48 23 -71 16 -23 -8 -27 -63 -4 -71 8 -4 15 -11 15 -16 0 -7 -5 -6 -14
1 -10 9 -16 8 -26 -4 -26 -31 -60 -18 -122 48 -33 34 -68 78 -78 98 -28 53
-108 74 -124 33 -10 -27 -26 -14 -26 21 0 19 -4 35 -10 35 -5 0 -10 5 -10 10
0 11 66 11 84 1 20 -10 56 -6 56 6 0 7 5 12 12 11 7 -2 13 7 14 20 2 37 20 48
28 16 5 -17 3 -30 -4 -34 -8 -5 -7 -9 3 -13 27 -10 38 10 43 89 3 43 7 80 9
82 1 2 10 -4 19 -13 15 -15 16 -14 16 12 0 22 -2 25 -10 13 -5 -8 -10 -10 -10
-5 0 6 4 15 9 20 5 6 11 34 13 63 4 43 3 52 -9 48 -8 -4 -17 -6 -19 -6 -3 0
-2 -4 1 -10 3 -5 -2 -10 -11 -10 -14 0 -15 -3 -6 -12 7 -7 12 -28 12 -48 l-1
-35 -20 24 c-11 13 -17 31 -14 40 5 18 -40 35 -127 47 -62 8 -87 26 -69 47 7
9 9 21 5 28 -7 12 -11 34 -13 83 -1 24 -3 26 -16 16 -15 -13 -39 -5 -30 11 4
5 2 9 -3 9 -12 0 -3 38 11 47 5 3 16 -3 24 -13 13 -17 14 -16 8 18 -10 52 0
76 30 73 14 -2 32 -11 41 -20 14 -14 15 -20 4 -40 -8 -15 -10 -40 -5 -74 5
-38 4 -51 -6 -51 -7 0 -10 -3 -6 -6 3 -3 24 -3 46 1 l41 7 -32 31 -33 31 25 7
c16 4 19 7 8 8 -27 1 -22 31 5 32 l22 0 -22 16 c-13 8 -23 25 -23 37 1 20 2
20 14 4 16 -21 40 -24 33 -4 -7 17 13 26 53 26 l29 0 3 -72 3 -73 27 83 c25
75 107 457 124 575 l6 47 -268 0 -269 0 -2 -32 c-1 -18 -5 -68 -9 -111 -3 -42
-3 -92 0 -111 6 -30 13 -37 71 -61 36 -16 65 -32 65 -37 0 -13 -9 -11 -160 52
-80 34 -215 87 -300 120 -262 99 -344 135 -355 159 -8 17 -19 21 -52 21 l-43
0 5 -162 c2 -90 8 -271 14 -403 6 -132 13 -314 16 -405 3 -91 8 -214 11 -275
l6 -110 -34 -18 c-20 -10 -41 -15 -52 -11 -14 6 -17 2 -15 -17 2 -13 -3 -34
-9 -47 -7 -12 -10 -27 -6 -33 4 -7 -1 -9 -14 -5 -14 5 -21 2 -24 -10 -2 -13
-13 -7 -47 25 -24 22 -48 41 -53 41 -11 0 0 43 12 48 5 2 -3 14 -16 27 -26 26
-31 51 -12 57 8 3 7 18 -5 53 -15 43 -24 110 -10 78 10 -27 21 -11 12 17 -6
16 -14 28 -19 25 -4 -2 -10 12 -14 33 -3 21 -1 38 4 40 6 2 10 8 10 13 0 6 -4
8 -9 5 -12 -8 -19 51 -27 225 -5 120 -3 158 11 217 18 75 16 94 -9 73 -12 -10
-15 4 -20 91 -3 57 -7 154 -9 216 -2 109 -1 113 18 107 53 -17 69 -14 30 4
-22 11 -40 25 -39 30 3 30 4 32 23 21 26 -13 41 -12 17 1 -14 9 -15 13 -6 19
43 27 -15 30 -531 30 l-529 0 0 -1400z m5092 1253 c-3 -76 -9 -141 -14 -144
-5 -3 -8 -11 -6 -16 2 -6 -1 -11 -7 -12 -5 -1 -10 11 -11 26 -2 41 32 283 40
283 1 0 0 -62 -2 -137z m1195 51 c-4 -21 -1 -25 14 -21 12 3 23 -2 29 -13 14
-27 12 -40 -5 -34 -12 5 -14 -2 -12 -35 1 -25 7 -41 15 -41 6 0 12 -6 12 -13
0 -7 -6 -19 -12 -26 -11 -11 -9 -13 9 -8 29 7 39 -8 16 -22 -16 -9 -16 -10 -1
-11 12 0 15 -6 11 -22 -3 -13 -10 -28 -15 -35 -5 -7 -7 -16 -4 -22 3 -5 0 -12
-6 -15 -10 -3 -9 -8 3 -15 11 -7 15 -22 13 -46 -1 -19 1 -35 6 -35 4 0 5 -39
2 -86 -4 -65 -2 -88 8 -94 21 -13 -32 -106 -58 -102 -16 2 -21 -4 -27 -38 -4
-23 -13 -44 -21 -47 -8 -3 -14 -14 -14 -26 0 -11 -15 -33 -32 -48 l-33 -27 27
-7 28 -7 -23 -20 c-12 -11 -16 -16 -8 -12 11 5 13 2 9 -14 -4 -16 -2 -22 9
-22 12 0 10 -5 -7 -20 -13 -11 -27 -20 -32 -20 -5 0 -7 -4 -4 -9 3 -5 15 -7
26 -4 16 4 19 2 14 -11 -4 -10 -13 -15 -22 -11 -12 4 -13 3 -2 -10 10 -12 9
-16 -5 -22 -11 -4 -22 0 -30 10 -7 10 -18 17 -24 17 -9 0 -11 56 -7 233 6 291
18 667 22 687 1 8 3 38 3 66 l1 51 43 13 c23 7 47 14 52 15 29 9 37 4 32 -21z
m50 -116 c-3 -8 -6 -5 -6 6 -1 11 2 17 5 13 3 -3 4 -12 1 -19z m-1170 -30 c-3
-7 -5 -2 -5 12 0 14 2 19 5 13 2 -7 2 -19 0 -25z m13 -137 c0 -5 -9 -7 -20 -4
-11 3 -20 7 -20 9 0 2 9 4 20 4 11 0 20 -4 20 -9z m-2913 -154 c-12 -5 -45 -6
-74 -3 -30 4 -54 2 -58 -4 -4 -6 8 -10 29 -10 35 0 49 -14 24 -23 -10 -4 -10
-7 -1 -17 10 -11 9 -16 -3 -25 -24 -17 -45 -121 -38 -190 4 -40 1 -80 -10
-121 -12 -46 -14 -74 -7 -110 9 -47 1 -137 -12 -151 -4 -3 -8 63 -8 148 -1 85
-4 236 -8 337 l-6 182 97 -2 c65 -2 90 -6 75 -11z m133 -1 c8 -2 -9 -4 -37 -5
-29 0 -53 3 -53 7 0 7 52 6 90 -2z m3054 -87 c6 -31 -7 -69 -24 -69 -6 0 -10
15 -10 34 0 66 23 89 34 35z m-3518 -103 c0 -33 5 -40 31 -51 43 -18 61 -51
56 -101 -5 -41 -38 -78 -52 -55 -4 5 -21 8 -39 6 -18 -2 -32 0 -32 5 0 18 -19
10 -31 -11 -11 -21 -10 -22 37 -16 73 10 78 3 77 -98 -1 -90 -6 -106 -25 -87
-8 8 -17 8 -31 0 -17 -9 -19 -8 -14 11 3 11 1 24 -4 27 -5 3 -8 17 -7 31 2 15
-3 28 -11 31 -9 3 -12 0 -8 -10 3 -9 1 -33 -5 -54 -5 -22 -9 -50 -9 -64 1 -13
-4 -40 -11 -60 l-12 -35 -7 45 c-4 25 -8 105 -8 178 -1 129 0 133 22 142 12 5
16 9 10 9 -7 1 -12 4 -12 9 1 4 0 10 -1 15 -1 4 -3 10 -4 15 -1 4 -7 17 -14
28 -9 18 -9 24 3 34 8 6 19 9 25 5 6 -4 23 -4 37 0 l26 6 -22 23 c-24 26 -27
38 -7 30 11 -4 13 0 9 16 -5 18 -2 21 13 18 15 -2 19 -12 20 -42z m279 -244
c-3 -3 -16 5 -28 17 l-22 23 28 -17 c15 -10 25 -20 22 -23z m96 -12 c-6 -31
-8 -32 -13 -12 -7 27 2 66 13 55 4 -4 4 -24 0 -43z m3004 30 c3 -5 1 -10 -4
-10 -6 0 -11 5 -11 10 0 6 2 10 4 10 3 0 8 -4 11 -10z m-3058 -47 c2 -6 -1
-14 -6 -18 -7 -4 -8 1 -4 12 6 15 4 16 -9 6 -14 -12 -28 -8 -28 9 0 12 43 3
47 -9z m146 -33 c3 -11 1 -20 -4 -20 -5 0 -9 4 -9 9 0 5 -3 17 -7 27 -4 11 -3
15 4 11 6 -4 13 -16 16 -27z m-113 -15 c0 -8 -4 -15 -10 -15 -5 0 -7 7 -4 15
4 8 8 15 10 15 2 0 4 -7 4 -15z m39 -45 c1 -13 0 -13 -9 0 -5 8 -9 26 -9 40
l1 25 8 -25 c4 -14 8 -32 9 -40z m75 14 c23 -23 19 -40 -4 -19 -11 10 -20 22
-20 27 0 12 7 10 24 -8z m3016 -18 c-19 -8 -39 -11 -45 -8 -11 7 29 20 60 20
12 0 6 -5 -15 -12z m60 -6 c0 -5 -2 -10 -4 -10 -3 0 -8 5 -11 10 -3 6 -1 10 4
10 6 0 11 -4 11 -10z m-94 -35 c-3 -8 -1 -15 3 -15 5 0 11 5 13 10 2 6 20 13
41 17 33 5 37 3 37 -15 0 -29 -35 -48 -45 -24 -6 16 -7 16 -19 0 -11 -15 -16
-15 -30 -5 -15 11 -14 47 1 47 3 0 3 -7 -1 -15z m-3427 -32 c-1 -10 0 -22 1
-28 9 -32 4 -75 -9 -75 -8 0 -11 -6 -7 -16 4 -10 1 -14 -6 -11 -8 2 -13 20
-12 45 0 23 -3 42 -7 42 -5 0 0 13 9 30 19 33 34 39 31 13z m4241 -23 c0 -5
-9 -10 -21 -10 -11 0 -17 5 -14 10 3 6 13 10 21 10 8 0 14 -4 14 -10z m-1490
-31 c0 -18 -2 -19 -15 -9 -8 7 -15 16 -15 21 0 5 7 9 15 9 9 0 15 -9 15 -21z
m-1616 -94 c3 -8 1 -15 -4 -15 -6 0 -10 7 -10 15 0 8 2 15 4 15 2 0 6 -7 10
-15z m1657 -1 c12 -14 11 -16 -5 -13 -11 2 -21 10 -24 17 -5 17 13 15 29 -4z
m-2801 -19 c0 -30 -15 -33 -23 -5 -4 16 1 23 21 29 1 1 2 -10 2 -24z m-106
-56 c-31 -12 -39 -10 -19 5 11 8 24 12 29 8 5 -3 1 -9 -10 -13z m108 -46 c-2
-7 -8 -13 -13 -13 -11 0 -12 54 -2 64 9 9 22 -34 15 -51z m491 34 c21 -33 9
-49 -28 -38 -17 5 -24 10 -17 10 6 1 12 12 12 26 0 31 13 32 33 2z m-1117 -10
c23 9 16 -22 -11 -45 -34 -29 -38 -28 -30 11 9 40 17 55 22 40 3 -7 11 -9 19
-6z m974 4 c0 -6 -4 -13 -10 -16 -5 -3 -10 1 -10 9 0 9 5 16 10 16 6 0 10 -4
10 -9z m2968 -19 c31 -11 6 -20 -60 -20 -79 -1 -108 4 -108 19 0 9 142 10 168
1z m-3131 -16 c7 -7 -10 -9 -47 -7 -14 1 -37 1 -52 1 -15 0 -30 5 -33 11 -8
11 121 7 132 -5z m3513 4 c0 -5 -4 -10 -10 -10 -5 0 -10 5 -10 10 0 6 5 10 10
10 6 0 10 -4 10 -10z m538 -43 c42 -10 54 -23 29 -32 -19 -8 -140 19 -144 32
-5 13 34 23 57 15 8 -2 34 -9 58 -15z m-958 3 c0 -5 -7 -7 -15 -4 -8 4 -15 8
-15 10 0 2 7 4 15 4 8 0 15 -4 15 -10z m255 -10 c22 -2 25 -4 10 -7 -11 -3
-24 -11 -30 -19 -10 -13 -179 -23 -191 -11 -3 3 -7 16 -8 29 l-3 23 96 -6 c53
-4 110 -8 126 -9z m-2128 4 c-3 -3 -12 -4 -19 -1 -8 3 -5 6 6 6 11 1 17 -2 13
-5z m2198 -14 c3 -5 1 -10 -4 -10 -6 0 -11 5 -11 10 0 6 2 10 4 10 3 0 8 -4
11 -10z m-89 -156 c-3 -25 -8 -50 -12 -55 -9 -15 -100 -11 -114 5 -9 12 -7 21
12 47 26 35 49 47 92 48 28 1 29 1 22 -45z m-2088 29 c-21 -2 -55 -2 -75 0
-21 2 -4 4 37 4 41 0 58 -2 38 -4z m-32 -35 c-3 -13 -6 -36 -6 -51 0 -26 -3
-28 -35 -25 -20 2 -34 8 -33 13 2 6 9 9 16 9 6 -1 12 4 12 12 0 8 -10 14 -25
14 -20 0 -25 5 -25 25 0 23 3 25 51 25 48 0 51 -1 45 -22z m1344 -94 c0 -19
-46 -18 -53 0 -4 9 1 16 11 19 24 5 42 -3 42 -19z m-2023 -34 c22 -13 35 -31
43 -58 12 -48 7 -65 -27 -88 l-26 -16 17 23 c31 44 10 115 -42 143 -15 9 -20
15 -12 16 8 0 29 -9 47 -20z m1093 -20 c-8 -5 -19 -10 -25 -10 -5 0 -3 5 5 10
8 5 20 10 25 10 6 0 3 -5 -5 -10z m1047 -347 c-3 -10 -5 -4 -5 12 0 17 2 24 5
18 2 -7 2 -21 0 -30z m-3537 -69 l31 -26 49 21 c94 41 105 14 12 -30 -26 -13
-50 -27 -53 -32 -3 -4 -17 4 -31 20 -13 15 -33 33 -43 39 -10 6 -21 16 -23 22
-7 21 25 13 58 -14z m3547 -56 c-2 -13 -4 -3 -4 22 0 25 2 35 4 23 2 -13 2
-33 0 -45z m-1400 -55 c-3 -10 -5 -4 -5 12 0 17 2 24 5 18 2 -7 2 -21 0 -30z
m1143 -43 c0 -27 -4 -50 -10 -50 -5 0 -8 10 -6 23 3 12 5 34 5 50 2 48 11 29
11 -23z m1520 -70 c0 -5 -13 -10 -29 -10 -17 0 -33 5 -36 10 -4 6 8 10 29 10
20 0 36 -4 36 -10z m-2254 -83 c4 -4 -2 -7 -14 -7 -11 0 -23 4 -26 8 -6 10 30
9 40 -1z m49 -6 c-7 -13 97 -26 230 -30 l70 -1 -24 -19 c-17 -13 -22 -25 -18
-40 3 -11 1 -19 -4 -15 -5 3 -9 -2 -9 -11 0 -15 -22 -16 -224 -13 -193 3 -227
5 -243 20 -12 11 -31 16 -58 14 -45 -4 -85 17 -85 45 0 11 -6 20 -12 20 -7 1
5 5 27 9 22 5 101 9 175 9 85 0 136 4 138 11 2 5 13 10 23 10 11 0 18 -4 14
-9z m-959 -136 c11 -8 14 -15 7 -15 -7 0 -13 -6 -13 -13 0 -7 -9 -13 -20 -13
-25 0 -25 5 -2 22 15 12 15 15 2 24 -8 5 -10 10 -4 10 5 0 19 -7 30 -15z
m1474 5 c0 -5 -2 -10 -4 -10 -3 0 -8 5 -11 10 -3 6 -1 10 4 10 6 0 11 -4 11
-10z m10 -50 c0 -5 -4 -10 -10 -10 -5 0 -10 5 -10 10 0 6 5 10 10 10 6 0 10
-4 10 -10z m-70 -15 c0 -8 5 -15 11 -15 5 0 7 -4 4 -10 -11 -17 -22 -11 -27
15 -3 14 -1 25 3 25 5 0 9 -7 9 -15z m-1430 -21 c0 -8 -4 -12 -10 -9 -5 3 -10
10 -10 16 0 5 5 9 10 9 6 0 10 -7 10 -16z"/>
<path d="M6290 3060 c0 -5 7 -10 15 -10 8 0 15 5 15 10 0 6 -7 10 -15 10 -8 0
-15 -4 -15 -10z"/>
<path d="M5446 2056 c3 -9 11 -16 16 -16 13 0 5 23 -10 28 -7 2 -10 -2 -6 -12z"/>
<path d="M1820 3192 c0 -4 16 -25 35 -46 l35 -39 0 47 c0 46 0 46 -35 46 -19
0 -35 -4 -35 -8z"/>
<path d="M1915 3103 c7 -93 16 -123 37 -123 5 0 2 7 -7 16 -11 12 -15 30 -13
63 3 42 5 46 30 49 24 3 26 5 15 22 -14 24 3 46 27 37 24 -9 19 -40 -9 -72
-22 -22 -25 -35 -23 -76 3 -43 6 -49 26 -49 12 0 22 -5 22 -11 0 -6 7 -8 16
-5 8 3 13 2 10 -3 -3 -5 1 -11 9 -15 12 -4 15 4 15 43 0 41 -3 50 -21 54 -20
6 -22 10 -16 67 4 33 11 70 17 80 10 19 7 20 -66 20 l-76 0 7 -97z"/>
<path d="M1600 3180 c0 -13 18 -22 24 -11 3 5 -1 11 -9 15 -8 3 -15 1 -15 -4z"/>
<path d="M2061 3154 c0 -11 3 -14 6 -6 3 7 2 16 -1 19 -3 4 -6 -2 -5 -13z"/>
<path d="M5400 3135 c0 -28 -27 -46 -58 -38 -20 5 -22 1 -22 -35 0 -43 16 -65
26 -37 4 9 14 15 23 14 38 -3 60 2 82 22 l24 20 -23 -11 c-31 -15 -37 -8 -33
45 1 27 -2 45 -8 45 -6 0 -11 -11 -11 -25z"/>
<path d="M1110 3136 c0 -9 5 -16 10 -16 6 0 10 4 10 9 0 6 -4 13 -10 16 -5 3
-10 -1 -10 -9z"/>
<path d="M2045 3099 c-4 -6 -5 -12 -2 -15 2 -3 7 2 10 11 7 17 1 20 -8 4z"/>
<path d="M1110 3078 c3 -3 21 -10 40 -17 19 -6 30 -7 25 -2 -6 5 -23 13 -40
17 -16 4 -28 5 -25 2z"/>
<path d="M2607 2613 c-4 -3 -7 -25 -7 -49 0 -37 2 -42 20 -37 16 4 18 8 9 19
-10 13 -6 18 14 15 4 0 7 4 7 9 0 6 -7 10 -16 10 -9 0 -14 5 -12 12 8 23 28
19 40 -9 9 -22 12 -24 15 -10 3 10 -1 24 -7 32 -13 15 -51 20 -63 8z"/>
<path d="M4725 2612 c-3 -3 -5 -16 -5 -30 0 -22 3 -24 30 -18 20 4 30 2 30 -7
0 -9 2 -9 8 0 11 18 82 5 82 -15 0 -28 11 -5 16 32 3 29 1 36 -13 37 -96 5
-144 5 -148 1z"/>
<path d="M4564 2519 c4 -35 10 -67 12 -71 8 -13 24 -9 24 6 0 8 20 19 48 26
26 8 63 22 82 32 l35 18 -38 0 c-27 0 -37 4 -37 16 0 8 5 12 10 9 6 -3 10 -1
10 4 0 6 -9 11 -19 11 -14 0 -18 -5 -14 -20 5 -17 0 -20 -26 -20 -37 0 -43 26
-8 33 14 3 9 5 -15 6 -20 0 -44 4 -54 8 -15 6 -16 0 -10 -58z m46 26 c0 -8 -9
-15 -20 -15 -13 0 -18 5 -14 15 4 8 12 15 20 15 8 0 14 -7 14 -15z"/>
<path d="M2606 2494 c-10 -25 -2 -26 24 -4 22 19 22 20 3 20 -12 0 -24 -7 -27
-16z"/>
<path d="M2400 2426 c0 -8 4 -17 9 -20 5 -4 7 3 4 14 -6 23 -13 26 -13 6z"/>
<path d="M4570 2383 c0 -10 4 -14 8 -8 4 6 11 13 16 18 5 4 2 7 -7 7 -10 0
-17 -8 -17 -17z"/>
<path d="M4671 2384 c0 -11 3 -14 6 -6 3 7 2 16 -1 19 -3 4 -6 -2 -5 -13z"/>
<path d="M4733 2385 c0 -8 4 -12 9 -9 5 3 6 10 3 15 -9 13 -12 11 -12 -6z"/>
<path d="M2290 2370 c0 -9 31 -30 45 -30 3 0 1 9 -5 20 -11 20 -40 28 -40 10z"/>
<path d="M2415 2370 c3 -5 8 -10 11 -10 2 0 4 5 4 10 0 6 -5 10 -11 10 -5 0
-7 -4 -4 -10z"/>
<path d="M5133 2363 c-7 -3 -13 -11 -13 -20 0 -12 2 -12 16 2 18 17 16 25 -3
18z"/>
<path d="M2370 2341 c0 -5 6 -11 13 -13 17 -7 38 2 31 13 -7 12 -44 12 -44 0z"/>
<path d="M4717 2343 c-16 -15 -6 -31 16 -26 15 4 19 2 12 -5 -5 -5 -19 -12
-30 -15 -15 -4 -13 -5 8 -6 15 0 27 -6 27 -12 0 -7 -10 -9 -25 -7 -20 4 -25 1
-25 -14 0 -24 25 -34 54 -20 24 11 53 82 42 101 -8 12 -68 15 -79 4z"/>
<path d="M3926 2324 c-9 -8 -16 -30 -16 -49 0 -18 -5 -35 -12 -37 -25 -9 4
-26 41 -24 64 3 87 37 60 89 -21 40 -47 47 -73 21z m38 -27 c8 -12 8 -22 0
-34 -24 -38 -46 -20 -37 31 6 29 20 30 37 3z"/>
<path d="M4357 2326 c-13 -10 -16 -25 -15 -65 3 -51 4 -52 31 -47 15 3 27 2
27 -3 0 -5 7 -8 15 -7 21 3 31 16 13 16 -11 0 -14 8 -11 28 8 48 4 66 -13 79
-22 16 -25 16 -47 -1z m28 -27 c-5 -15 -4 -19 4 -15 6 4 11 0 11 -8 0 -23 -15
-19 -33 8 -17 25 -13 36 10 36 10 0 12 -6 8 -21z"/>
<path d="M3432 2303 c-6 -12 -5 -29 4 -50 17 -40 27 -46 50 -28 16 13 17 16 4
25 -12 8 -13 12 -2 19 8 4 12 17 10 27 -5 26 -54 31 -66 7z m53 -13 c3 -5 -1
-10 -9 -10 -9 0 -19 0 -23 -1 -4 0 -9 4 -11 10 -5 14 35 14 43 1z m-11 -45 c3
-8 1 -15 -4 -15 -6 0 -10 7 -10 15 0 8 2 15 4 15 2 0 6 -7 10 -15z"/>
<path d="M2586 2299 c2 -4 -3 -9 -11 -13 -11 -4 -13 -14 -8 -38 8 -44 9 -45
36 -21 24 22 75 41 120 45 15 1 27 6 27 10 0 5 -15 5 -32 2 -37 -7 -89 -6 -97
2 -3 3 1 9 9 14 11 7 6 9 -17 7 -17 -1 -29 -5 -27 -8z"/>
<path d="M5142 2260 c0 -14 2 -19 5 -12 2 6 2 18 0 25 -3 6 -5 1 -5 -13z"/>
<path d="M3050 2251 c6 -11 8 -32 4 -46 -5 -20 -2 -25 12 -25 33 0 46 15 42
51 -3 30 -7 34 -36 37 -31 3 -33 2 -22 -17z"/>
<path d="M5121 2250 c-1 -14 -4 -36 -6 -50 l-6 -25 11 25 c6 13 9 36 7 50 l-4
25 -2 -25z"/>
<path d="M4694 2202 c-6 -4 -15 -21 -18 -39 -5 -19 -15 -35 -27 -38 -11 -4
-19 -9 -16 -11 10 -11 52 15 52 32 0 11 10 23 23 29 22 10 25 26 6 32 -5 1
-14 -1 -20 -5z"/>
<path d="M2629 2200 c-5 -25 -4 -50 3 -50 4 0 8 -10 8 -22 0 -19 2 -20 10 -8
5 8 10 12 11 8 1 -5 3 -12 4 -18 1 -5 3 -14 4 -20 0 -5 6 -10 12 -10 8 0 8 5
-1 15 -9 10 -9 15 -1 15 11 0 -4 36 -20 50 -3 3 -11 14 -17 25 -6 11 -12 18
-13 15z"/>
<path d="M4285 2180 c3 -5 11 -10 16 -10 6 0 7 5 4 10 -3 6 -11 10 -16 10 -6
0 -7 -4 -4 -10z"/>
<path d="M3381 2173 c-19 -4 -21 -7 -10 -14 11 -7 10 -9 -5 -9 -18 0 -18 -1
-4 -12 9 -7 18 -22 20 -32 1 -11 9 -21 17 -24 11 -4 13 3 8 31 -3 20 -1 39 4
42 11 7 12 26 2 24 -5 -1 -19 -4 -32 -6z"/>
<path d="M3573 2156 c34 -31 57 -33 57 -6 0 12 -7 20 -17 20 -10 0 -29 3 -43
6 l-25 6 28 -26z"/>
<path d="M3916 2157 c3 -10 9 -15 12 -12 3 3 0 11 -7 18 -10 9 -11 8 -5 -6z"/>
<path d="M3508 2153 c7 -3 16 -2 19 1 4 3 -2 6 -13 5 -11 0 -14 -3 -6 -6z"/>
<path d="M4318 2147 c-44 -10 -48 -13 -48 -41 0 -16 -9 -40 -21 -52 -13 -14
-17 -24 -10 -29 6 -3 11 1 11 9 0 10 9 16 25 16 16 0 25 6 25 15 0 8 5 15 10
15 6 0 10 -6 10 -12 0 -9 3 -8 10 2 6 10 5 17 -5 23 -33 18 -13 28 53 25 59
-3 67 -5 68 -23 1 -11 2 -24 3 -29 1 -6 6 -5 13 2 7 7 21 12 31 12 15 0 18 -5
14 -21 -3 -12 -2 -18 2 -13 5 5 11 21 14 35 6 24 4 26 -30 27 -26 1 -44 9 -60
27 -25 27 -40 28 -115 12z"/>
<path d="M4762 2151 c-23 -6 -23 -6 7 -29 17 -12 31 -18 31 -13 0 5 3 16 6 24
6 18 -13 26 -44 18z"/>
<path d="M3540 2146 c0 -2 8 -10 18 -17 15 -13 16 -12 3 4 -13 16 -21 21 -21
13z"/>
<path d="M2570 2124 c0 -8 5 -12 10 -9 6 3 10 10 10 16 0 5 -4 9 -10 9 -5 0
-10 -7 -10 -16z"/>
<path d="M5115 2129 c-10 -15 3 -25 16 -12 7 7 7 13 1 17 -6 3 -14 1 -17 -5z"/>
<path d="M3450 2122 c0 -6 5 -14 11 -17 6 -4 8 -13 5 -21 -3 -8 -1 -24 4 -36
5 -13 9 -17 9 -9 1 9 5 10 14 3 6 -5 19 -7 27 -3 12 5 6 16 -27 50 -24 25 -43
40 -43 33z"/>
<path d="M3951 2096 c-20 -11 -21 -14 -6 -19 20 -8 58 10 50 24 -8 12 -15 11
-44 -5z"/>
<path d="M4381 2076 c-5 -13 -17 -26 -25 -29 -30 -12 -16 -23 23 -19 29 3 38
8 34 18 -3 8 0 14 6 14 6 0 11 5 11 11 0 5 -4 7 -10 4 -5 -3 -10 1 -10 9 0 24
-19 19 -29 -8z"/>
<path d="M3580 2086 c0 -2 7 -7 16 -10 8 -3 12 -2 9 4 -6 10 -25 14 -25 6z"/>
<path d="M2670 2057 c0 -8 7 -17 15 -21 8 -3 15 -3 15 0 0 3 -7 12 -15 20 -13
13 -15 13 -15 1z"/>
<path d="M2935 2060 c-3 -6 1 -7 9 -4 18 7 21 14 7 14 -6 0 -13 -4 -16 -10z"/>
<path d="M3264 2055 c-9 -22 2 -41 25 -48 12 -3 19 -1 15 4 -3 5 -12 9 -20 9
-8 0 -14 7 -14 15 0 8 5 15 10 15 6 0 10 5 10 10 0 16 -20 12 -26 -5z"/>
<path d="M3415 2057 c-4 -10 -5 -21 -1 -24 10 -10 18 4 13 24 -4 17 -4 17 -12
0z"/>
<path d="M3566 2057 c3 -10 9 -15 12 -12 3 3 0 11 -7 18 -10 9 -11 8 -5 -6z"/>
<path d="M3830 2051 c0 -5 5 -13 10 -16 6 -3 10 -2 10 4 0 5 -4 13 -10 16 -5
3 -10 2 -10 -4z"/>
<path d="M3380 2030 c-13 -8 -12 -10 3 -10 9 0 17 5 17 10 0 12 -1 12 -20 0z"/>
<path d="M4305 2030 c-3 -5 -1 -10 4 -10 6 0 11 5 11 10 0 6 -2 10 -4 10 -3 0
-8 -4 -11 -10z"/>
<path d="M3820 2020 c0 -5 5 -10 11 -10 5 0 7 5 4 10 -3 6 -8 10 -11 10 -2 0
-4 -4 -4 -10z"/>
<path d="M3722 1938 c-2 -54 -6 -78 -14 -78 -8 0 -6 -6 5 -17 9 -9 18 -15 20
-12 2 2 1 45 -3 94 l-7 90 -1 -77z"/>
<path d="M2670 1985 c0 -9 9 -15 21 -15 18 0 19 2 9 15 -7 8 -16 15 -21 15 -5
0 -9 -7 -9 -15z"/>
<path d="M4056 1944 c-4 -14 -5 -28 -3 -31 3 -2 8 8 11 23 4 14 5 28 3 31 -3
2 -8 -8 -11 -23z"/>
<path d="M3658 1862 c-32 -6 -20 -32 15 -32 17 0 27 4 21 8 -6 4 -13 12 -15
17 -2 6 -12 9 -21 7z"/>
<path d="M3918 1864 c-3 -3 -40 -6 -82 -7 -42 -1 -77 -6 -79 -12 -3 -12 215
-30 240 -20 10 4 40 8 68 9 35 1 50 5 53 16 2 12 -15 15 -96 17 -55 1 -102 0
-104 -3z"/>
<path d="M5150 1850 c0 -5 7 -10 15 -10 8 0 15 5 15 10 0 6 -7 10 -15 10 -8 0
-15 -4 -15 -10z"/>
</g>
</svg>
